<?xml version="1.0" encoding="utf-8"?>
<!-- Generator: Adobe Illustrator 21.1.0, SVG Export Plug-In . SVG Version: 6.00 Build 0)  -->
<svg version="1.1" xmlns="http://www.w3.org/2000/svg" xmlns:xlink="http://www.w3.org/1999/xlink" x="0px" y="0px"
	 viewBox="0 0 1140 600" style="enable-background:new 0 0 1140 600;" xml:space="preserve">
<style type="text/css">
	#Interacao_02 .st0{fill:#00a075;}
	#Interacao_02 .st1{fill:#00a075;}
	#Interacao_02 .st2{fill:none;stroke:#0A0D33;stroke-width:3;stroke-miterlimit:10;}
	#Interacao_02 .st3{fill:#00a075;}
	#Interacao_02 .st4{fill:#00a075;}
	#Interacao_02 .st5{fill:#00a075;}
	#Interacao_02 .st6{fill:#00a075;}
	#Interacao_02 .st7{fill:none;}
	#Interacao_02 .st8{fill:#FFFFFF;}
	#Interacao_02 .st9{font-family:'Montserrat';font-weight:700;}
	#Interacao_02 .st10{font-size:17px;}
	#Interacao_02 .st11{fill:#001030;}
	#Interacao_02 .st12{opacity:0.5;}
	#Interacao_02 .st13{clip-path:url(#SVGID_7_);}
	#Interacao_02 .st14{opacity:0.25;fill:url(#SVGID_8_);}
	#Interacao_02 .st15{opacity:0.71;fill:url(#SVGID_9_);}
	#Interacao_02 .st16{opacity:0.5;fill:url(#SVGID_10_);}
	#Interacao_02 .st17{opacity:0.3;fill:url(#SVGID_11_);}
	#Interacao_02 .st18{opacity:0.19;fill:url(#SVGID_12_);}
	#Interacao_02 .st19{opacity:0.5;fill:url(#SVGID_13_);}
	#Interacao_02 .st20{opacity:0.44;fill:url(#SVGID_14_);}
	#Interacao_02 .st21{opacity:0.5;fill:none;stroke:url(#SVGID_15_);stroke-width:2.9585;stroke-miterlimit:10;}
	#Interacao_02 .st22{fill:none;stroke:url(#SVGID_16_);stroke-width:2.9585;stroke-miterlimit:10;}
	#Interacao_02 .st23{opacity:0.35;fill:none;stroke:url(#SVGID_17_);stroke-width:2.9585;stroke-miterlimit:10;}
	#Interacao_02 .st24{font-family:'Asap';}
	#Interacao_02 .st25{clip-path:url(#SVGID_19_);}
	#Interacao_02 .st26{opacity:0.25;fill:url(#SVGID_20_);}
	#Interacao_02 .st27{opacity:0.71;fill:url(#SVGID_21_);}
	#Interacao_02 .st28{opacity:0.5;fill:url(#SVGID_22_);}
	#Interacao_02 .st29{opacity:0.3;fill:url(#SVGID_23_);}
	#Interacao_02 .st30{opacity:0.19;fill:url(#SVGID_24_);}
	#Interacao_02 .st31{opacity:0.5;fill:url(#SVGID_25_);}
	#Interacao_02 .st32{opacity:0.44;fill:url(#SVGID_26_);}
	#Interacao_02 .st33{opacity:0.5;fill:none;stroke:url(#SVGID_27_);stroke-width:2.9585;stroke-miterlimit:10;}
	#Interacao_02 .st34{fill:none;stroke:url(#SVGID_28_);stroke-width:2.9585;stroke-miterlimit:10;}
	#Interacao_02 .st35{opacity:0.35;fill:none;stroke:url(#SVGID_29_);stroke-width:2.9585;stroke-miterlimit:10;}
	#Interacao_02 .st36{clip-path:url(#SVGID_31_);}
	#Interacao_02 .st37{opacity:0.25;fill:url(#SVGID_32_);}
	#Interacao_02 .st38{opacity:0.71;fill:url(#SVGID_33_);}
	#Interacao_02 .st39{opacity:0.5;fill:url(#SVGID_34_);}
	#Interacao_02 .st40{opacity:0.3;fill:url(#SVGID_35_);}
	#Interacao_02 .st41{opacity:0.19;fill:url(#SVGID_36_);}
	#Interacao_02 .st42{opacity:0.5;fill:url(#SVGID_37_);}
	#Interacao_02 .st43{opacity:0.44;fill:url(#SVGID_38_);}
	#Interacao_02 .st44{opacity:0.5;fill:none;stroke:url(#SVGID_39_);stroke-width:2.9585;stroke-miterlimit:10;}
	#Interacao_02 .st45{fill:none;stroke:url(#SVGID_40_);stroke-width:2.9585;stroke-miterlimit:10;}
	#Interacao_02 .st46{opacity:0.35;fill:none;stroke:url(#SVGID_41_);stroke-width:2.9585;stroke-miterlimit:10;}
	#Interacao_02 .st47{clip-path:url(#SVGID_43_);}
	#Interacao_02 .st48{opacity:0.25;fill:url(#SVGID_44_);}
	#Interacao_02 .st49{opacity:0.71;fill:url(#SVGID_45_);}
	#Interacao_02 .st50{opacity:0.5;fill:url(#SVGID_46_);}
	#Interacao_02 .st51{opacity:0.3;fill:url(#SVGID_47_);}
	#Interacao_02 .st52{opacity:0.19;fill:url(#SVGID_48_);}
	#Interacao_02 .st53{opacity:0.5;fill:url(#SVGID_49_);}
	#Interacao_02 .st54{opacity:0.44;fill:url(#SVGID_50_);}
	#Interacao_02 .st55{opacity:0.5;fill:none;stroke:url(#SVGID_51_);stroke-width:2.9585;stroke-miterlimit:10;}
	#Interacao_02 .st56{fill:none;stroke:url(#SVGID_52_);stroke-width:2.9585;stroke-miterlimit:10;}
	#Interacao_02 .st57{opacity:0.35;fill:none;stroke:url(#SVGID_53_);stroke-width:2.9585;stroke-miterlimit:10;}
	#Interacao_02 .st58{clip-path:url(#SVGID_55_);}
	#Interacao_02 .st59{opacity:0.25;fill:url(#SVGID_56_);}
	#Interacao_02 .st60{opacity:0.71;fill:url(#SVGID_57_);}
	#Interacao_02 .st61{opacity:0.5;fill:url(#SVGID_58_);}
	#Interacao_02 .st62{opacity:0.3;fill:url(#SVGID_59_);}
	#Interacao_02 .st63{opacity:0.19;fill:url(#SVGID_60_);}
	#Interacao_02 .st64{opacity:0.5;fill:url(#SVGID_61_);}
	#Interacao_02 .st65{opacity:0.44;fill:url(#SVGID_62_);}
	#Interacao_02 .st66{opacity:0.5;fill:none;stroke:url(#SVGID_63_);stroke-width:2.9585;stroke-miterlimit:10;}
	#Interacao_02 .st67{fill:none;stroke:url(#SVGID_64_);stroke-width:2.9585;stroke-miterlimit:10;}
	#Interacao_02 .st68{opacity:0.35;fill:none;stroke:url(#SVGID_65_);stroke-width:2.9585;stroke-miterlimit:10;}
</style>

<g id="Interacao_02">
	<g id="Ilustra">
		<path class="st0" d="M239.7,283.3V62.3C141.9,64.4,59.2,128.1,29,216.1L239.7,283.3z"/>
		<path class="st0" d="M253.7,283.3l210.4-68c-30.5-87.7-112.9-151-210.4-153.1V283.3z"/>
		<path class="st0" d="M257.8,295.8l130.1,178.7c54.6-41.7,89.8-107.4,89.8-181.3c0-22.7-3.3-44.6-9.5-65.3L257.8,295.8z"/>
		<path class="st0" d="M236.6,296.9L26,229.6c-6,20.5-9.3,42.1-9.3,64.5c0,74.5,35.7,140.7,91,182.3L236.6,296.9z"/>
		<path class="st0" d="M246.7,304.7L117.8,484.3c36.7,25.2,81,39.9,128.9,39.9c48.4,0,93.2-15.1,130.1-40.8L246.7,304.7z"/>

		<path class="st2" d="M456.3,190.5c-36.5-74-111.9-125.4-199.6-127.3v221.1c0,0,13.7-4.4,34-11"/>
		<path class="st2" d="M207.8,65.7C125.6,80.2,58.6,138.7,32,216.1l210.7,67.2c0,0,0-14.3,0-35.6"/>
		<path class="st2" d="M412.9,454.4c41.2-41.3,66.8-98.2,66.8-161.2c0-22.7-3.3-44.6-9.5-65.3l-210.4,68c0,0,9,12.4,22.3,30.6"/>
		<path class="st2" d="M21.8,262.9c-1.4,10.2-2.1,20.7-2.1,31.3c0,74.5,35.7,140.7,91,182.3l128.9-179.6c0,0-13.1-4.2-32.7-10.4"/>
		<path class="st2" d="M155.4,503.8c28.7,13.1,60.6,20.4,94.3,20.4c48.4,0,93.2-15.1,130.1-40.8L249.7,304.7c0,0-6.9,9.6-17.5,24.4"/>
			
		<text transform="matrix(1 0 0 1 79.5259 167.7154)">
			<tspan x="12" y="0" class="st8 st9 st10">Habilidade de</tspan>
			<tspan x="0" y="22" class="st8 st9 st10">relacionamento</tspan>
		</text>

		<text transform="matrix(1 0 0 1 292.2852 153.7154)">
			<tspan x="16" y="0" class="st8 st9 st10">Tomada</tspan>
			<tspan x="5" y="22" class="st8 st9 st10">de decisão</tspan>
			<tspan x="0" y="44" class="st8 st9 st10">responsável</tspan>
		</text>
		<text transform="matrix(1 0 0 1 340 335)" class="st8 st9 st10">Autogestão</text>
		<text transform="matrix(1 0 0 1 65 335)">
			<tspan x="0" y="0" class="st8 st9 st10">Percepção</tspan>
			<tspan x="16.5" y="22" class="st8 st9 st10">social</tspan>
		</text>
		<text transform="matrix(1 0 0 1 165.5728 451.067)" class="st8 st9 st10">Autoconhecimento</text>

		<circle class="st3" cx="452.2" cy="165.4" r="2.5"/>
		<circle class="st3" cx="448.1" cy="159.4" r="1.6"/>
		<ellipse transform="matrix(0.966 -0.2587 0.2587 0.966 -86.5689 126.43)" class="st3" cx="422.2" cy="442.2" rx="2.5" ry="2.5"/>
		<ellipse transform="matrix(0.966 -0.2587 0.2587 0.966 -84.9909 127.471)" class="st3" cx="428.9" cy="436.7" rx="1.6" ry="1.6"/>
		<ellipse transform="matrix(0.7771 -0.6294 0.6294 0.7771 -288.9621 222.8973)" class="st3" cx="170.2" cy="519.4" rx="2.5" ry="2.5"/>
		<ellipse transform="matrix(0.7771 -0.6294 0.6294 0.7771 -288.7415 227.7308)" class="st3" cx="177.1" cy="521.5" rx="1.6" ry="1.6"/>
		<ellipse transform="matrix(0.6578 -0.7532 0.7532 0.6578 -206.8644 105.3467)" class="st3" cx="12.5" cy="280.3" rx="2.5" ry="2.5"/>
		<ellipse transform="matrix(0.6578 -0.7532 0.7532 0.6578 -212.5845 107.1398)" class="st3" cx="11.6" cy="287.5" rx="1.6" ry="1.6"/>
		<ellipse transform="matrix(0.2216 -0.9751 0.9751 0.2216 86.3547 233.1782)" class="st3" cx="189.2" cy="62.5" rx="2.5" ry="2.5"/>
		<ellipse transform="matrix(0.2216 -0.9751 0.9751 0.2216 78.5329 228.6439)" class="st3" cx="182.5" cy="65.1" rx="1.6" ry="1.6"/>
	</g>

	<g id="Feed">
		<g id="Feed_01" class="feed">
			<path class="st11" d="M1122.4,128.1H508.5c-4.2,0-7.6-3.4-7.6-7.6V17.8c0-4.2,3.4-7.6,7.6-7.6h613.9c4.6,0,8.3,3.7,8.3,8.3
				v101.4C1130.6,124.4,1126.9,128.1,1122.4,128.1z"/>
			<text transform="matrix(1 0 0 1 523.5149 39.2241)"><tspan x="0" y="0" class="st8 st9 st10">Tomada de decisão responsável: </tspan><tspan x="0" y="25" class="st8 st24 st10">Ser capaz de identificar verdadeiros problemas, analisar, refletir sobre a </tspan><tspan x="0" y="50" class="st8 st24 st10">situação; ter habilidade de resolução de problemas baseando-se em </tspan><tspan x="0" y="75" class="st8 st24 st10">preceitos éticos, morais e com fins construtivos. </tspan></text>
		</g>
		<g id="Feed_02" class="feed">
			<path class="st11" d="M1122.4,238.1H508.5c-4.2,0-7.6-3.4-7.6-7.6v-82.8c0-4.2,3.4-7.6,7.6-7.6h613.9c4.6,0,8.3,3.7,8.3,8.3
				v81.4C1130.6,234.4,1126.9,238.1,1122.4,238.1z"/>
			
			<text transform="matrix(1 0 0 1 523.5144 168.6278)"><tspan x="0" y="0" class="st8 st9 st10">Autogestão: </tspan><tspan x="0" y="25" class="st8 st24 st10">Autogerenciamento de comportamentos e emoções a fim de atingir uma </tspan><tspan x="0" y="50" class="st8 st24 st10">meta. Motivação, disciplina e persistência ante desafios.</tspan></text>
		</g>
		<g id="Feed_03" class="feed">
			<path class="st11" d="M1122.4,348.1H508.5c-4.2,0-7.6-3.4-7.6-7.6v-82.8c0-4.2,3.4-7.6,7.6-7.6h613.9c4.6,0,8.3,3.7,8.3,8.3
				v81.4C1130.6,344.4,1126.9,348.1,1122.4,348.1z"/>

			<text transform="matrix(1 0 0 1 523.5203 281.3196)"><tspan x="0" y="0" class="st8 st9 st10">Autoconhecimento: </tspan><tspan x="0" y="25" class="st8 st24 st10">Reconhecimento das próprias emoções, valores, forças, limitações e </tspan><tspan x="0" y="50" class="st8 st24 st10">autoeficácia.</tspan></text>
		</g>
		<g id="Feed_04" class="feed">
			<path class="st11" d="M1122.4,458.3H508.5c-4.2,0-7.6-3.4-7.6-7.6v-83.2c0-4.2,3.4-7.6,7.6-7.6h613.9c4.6,0,8.3,3.7,8.3,8.3V450
				C1130.6,454.6,1126.9,458.3,1122.4,458.3z"/>

			<text transform="matrix(1 0 0 1 523.5149 389.1266)"><tspan x="0" y="0" class="st8 st9 st10">Percepção social: </tspan><tspan x="0" y="25" class="st8 st24 st10">Cuidado e percepção com outras pessoas, empatia, aceitar sentimentos </tspan><tspan x="0" y="50" class="st8 st24 st10">diferentes do seu, apreciar a diversidade e respeitar o próximo. </tspan></text>
		</g>
		<g id="Feed_05" class="feed">
			<path class="st11" d="M1122.4,588.3H508.5c-4.2,0-7.6-3.4-7.6-7.6V477.6c0-4.2,3.4-7.6,7.6-7.6h613.9c4.6,0,8.3,3.7,8.3,8.3V580
				C1130.6,584.6,1126.9,588.3,1122.4,588.3z"/>

			<text transform="matrix(1 0 0 1 523.5144 497.9613)"><tspan x="0" y="0" class="st8 st9 st10">Habilidades de relacionamento: </tspan><tspan x="0" y="25" class="st8 st24 st10">Formação de parcerias positivas, pautadas pelo compromisso, cooperação, </tspan><tspan x="0" y="50" class="st8 st24 st10">comunicação efetiva, flexibilidade na negociação de acordos para lidar </tspan><tspan x="0" y="75" class="st8 st24 st10">satisfatoriamente com conflitos, saber pedir e prover ajuda. </tspan></text>
		</g>
	</g>

	<g id="Botoes">
		<path id="Botao_01" class="botao" d="M253.7,283.3l210.4-68c-30.5-87.7-112.9-151-210.4-153.1V283.3z"/>
		<path id="Botao_02" class="botao" d="M257.8,295.8l130.1,178.7c54.6-41.7,89.8-107.4,89.8-181.3c0-22.7-3.3-44.6-9.5-65.3L257.8,295.8z"/>
		<path id="Botao_03" class="botao" d="M246.7,304.7L117.8,484.3c36.7,25.2,81,39.9,128.9,39.9c48.4,0,93.2-15.1,130.1-40.8L246.7,304.7z"/>
		<path id="Botao_04" class="botao" d="M236.6,296.9L26,229.6c-6,20.5-9.3,42.1-9.3,64.5c0,74.5,35.7,140.7,91,182.3L236.6,296.9z"/>
		<path id="Botao_05" class="botao" d="M239.7,283.3V62.3C141.9,64.4,59.2,128.1,29,216.1L239.7,283.3z"/>
	</g>
</g>
</svg>
