<?xml version="1.0" encoding="utf-8"?>
<!-- Generator: Adobe Illustrator 23.1.1, SVG Export Plug-In . SVG Version: 6.00 Build 0)  -->
<svg version="1.1" id="Layer_1" xmlns="http://www.w3.org/2000/svg" xmlns:xlink="http://www.w3.org/1999/xlink" x="0px" y="0px"
	 viewBox="0 0 940 1030" style="enable-background:new 0 0 940 1030;" xml:space="preserve">
<style type="text/css">
	#Interacao_03 .st0{fill:#066D4E;}
	#Interacao_03 .st1{fill:#FFFFFF;}
	#Interacao_03 .st2{fill:none;stroke:#FFFFFF;stroke-width:10;stroke-linecap:round;stroke-linejoin:round;stroke-miterlimit:10;}
	#Interacao_03 .st3{fill:none;stroke:#E7E5BD;stroke-width:22.5442;stroke-linecap:round;stroke-linejoin:round;stroke-miterlimit:10;}
	#Interacao_03 .st4{fill:none;}
	#Interacao_03 .st5{font-family:'Asap';}
	#Interacao_03 .st6{font-size:18px;}
	#Interacao_03 .st7{fill:#D6D9C4;}
	#Interacao_03 .st8{font-family:'Montserrat';font-weight:700}
	#Interacao_03 .st9{font-size:40px;}
	#Interacao_03 .st10{font-size:22px;}
	#Interacao_03 .st11{fill:none;stroke:#E7E5BD;stroke-width:21;stroke-linecap:round;stroke-linejoin:round;stroke-miterlimit:10;}
	#Interacao_03 .st12{fill:none;stroke:#FFFFFF;stroke-width:5;stroke-miterlimit:10;}
	#Interacao_03 .st13{fill:#FFFFFF;stroke:#FFFFFF;stroke-miterlimit:10;}
	#Interacao_03 .st14{fill:none;stroke:#FFFFFF;stroke-width:6.1929;stroke-miterlimit:10;stroke-dasharray:6.1929,6.1929;}
	#Interacao_03 .st15{fill:none;stroke:#FFFFFF;stroke-width:5;stroke-linecap:round;stroke-linejoin:round;stroke-miterlimit:10;}
	#Interacao_03 .st16{fill:none;stroke:#FFFFFF;stroke-width:3;stroke-linecap:round;stroke-linejoin:round;stroke-miterlimit:10;}
</style>
<g id="Interacao_03">
	<g>
		<path class="st0" d="M926.78,1025H12.52c-4.15,0-7.52-3.37-7.52-7.52V12.52C5,8.37,8.37,5,12.52,5h914.26
			c4.54,0,8.22,3.68,8.22,8.22v1003.56C935,1021.32,931.32,1025,926.78,1025z"/>
	</g>
	<circle class="st1" cx="216.74" cy="756.93" r="10.46"/>
	<path class="st2" d="M249.99,756.93h605.38c13.7,0,24.62-9.03,24.62-20.18v-20.64c0-11.32-11.1-20.18-25.02-20.18H85.14
		c-19.51,0-35.15-13.18-35.15-29.04V490.13c0-16.13,15.91-29.2,35.74-29.2h701.26"/>
	<line class="st3" x1="488.99" y1="461.43" x2="645.99" y2="461.43"/>
	<path class="st3" d="M49.49,547.93v-57.8c0-16.13,16.41-28.7,36.24-28.7h93.26"/>
	<path class="st3" d="M661.99,757.43h122h71.38c13.7,0,25.12-9.53,25.12-20.68v-20.64c0-11.32-11.6-20.68-25.52-20.68H746.99h-197.5
		h-165.5"/>
	<rect x="508.21" y="86.58" class="st4" width="274.89" height="70.98"/>
	<text transform="matrix(1 0 0 1 508.2135 100.2642)"><tspan x="0" y="0" class="st1 st5 st6">Reconhecemos o período </tspan><tspan x="0" y="26" class="st1 st5 st6">refratário e nomeamos as </tspan><tspan x="0" y="52" class="st1 st5 st6">emoções desconfortáveis</tspan></text>
	<rect x="508.21" y="40.88" class="st4" width="56.58" height="41.94"/>
	<text transform="matrix(1 0 0 1 508.214 70.5626)" class="st7 st8 st9">01.</text>
	<rect x="100.26" y="557.66" class="st4" width="217.4" height="97.81"/>
	<text transform="matrix(1 0 0 1 100.2634 571.337)"><tspan x="0" y="0" class="st1 st5 st6">Mapeamos forças e </tspan><tspan x="0" y="26" class="st1 st5 st6">variáveis envolvidas e </tspan><tspan x="0" y="52" class="st1 st5 st6">compreendemos a </tspan><tspan x="0" y="78" class="st1 st5 st6">complexidade da situação</tspan></text>
	<rect x="100.26" y="511.96" class="st4" width="56.58" height="41.94"/>
	<text transform="matrix(1 0 0 1 100.2635 541.6349)" class="st7 st8 st9">04</text>
	<rect x="667.92" y="557.66" class="st4" width="199.21" height="97.81"/>
	<text transform="matrix(1 0 0 1 667.9187 571.337)"><tspan x="0" y="0" class="st1 st5 st6">Traçamos um plano de </tspan><tspan x="0" y="26" class="st1 st5 st6">ação que repare danos </tspan><tspan x="0" y="52" class="st1 st5 st6">e reduza a possibilidade </tspan><tspan x="0" y="78" class="st1 st5 st6">de novos gatilhos</tspan></text>
	<rect x="667.92" y="511.96" class="st4" width="56.58" height="41.94"/>
	<text transform="matrix(1 0 0 1 667.9188 541.6349)" class="st7 st8 st9">05</text>
	<rect x="614.65" y="337.91" class="st4" width="225.72" height="70.98"/>
	<text transform="matrix(1 0 0 1 687.2251 351.5883)"><tspan x="0" y="0" class="st1 st5 st6">Damos uma pausa </tspan><tspan x="-1.98" y="26" class="st1 st5 st6">restauradora e nos </tspan><tspan x="-69.63" y="52" class="st1 st5 st6">fortalecemos internamente</tspan></text>
	<rect x="783.79" y="292.21" class="st4" width="63.12" height="41.94"/>
	<text transform="matrix(1 0 0 1 795.1093 321.8867)" class="st7 st8 st9">02</text>
	<rect x="49.28" y="337.91" class="st4" width="225.72" height="70.98"/>
	<text transform="matrix(1 0 0 1 87.0538 351.5883)"><tspan x="0" y="0" class="st1 st5 st6">Revisitamos a situação, </tspan><tspan x="2.58" y="26" class="st1 st5 st6">identificando o gatilho, </tspan><tspan x="17.87" y="52" class="st1 st5 st6">suas causas e efeitos</tspan></text>
	<rect x="208.97" y="292.21" class="st4" width="66.03" height="41.94"/>
	<text transform="matrix(1 0 0 1 212.2413 321.8867)" class="st7 st8 st9">03.</text>
	<rect x="38.97" y="72.08" class="st4" width="346.03" height="65.36"/>
	<text transform="matrix(1 0 0 1 147.6016 88.4023)"><tspan x="0" y="0" class="st1 st8 st10">Dor, sofrimento e </tspan><tspan x="-88.22" y="38" class="st1 st8 st10">desequilíbrio emocional</tspan></text>
	<rect x="53.36" y="818.01" class="st4" width="307.64" height="182.61"/>
	<text transform="matrix(1 0 0 1 56.7441 834.3347)"><tspan x="0" y="0" class="st1 st8 st10">São essas emoções que </tspan><tspan x="8.49" y="38" class="st1 st8 st10">nos empoderam a “dar </tspan><tspan x="55.57" y="76" class="st1 st8 st10">a volta por cima” e </tspan><tspan x="51.41" y="114" class="st1 st8 st10">agir porque já não </tspan><tspan x="58.58" y="152" class="st1 st8 st10">estamos confusos</tspan></text>
	<path class="st2" d="M53.36,181.57h803.46c15.88,0,28.76,11.86,28.76,26.99v7.91c0,16.07-13.68,29.1-30.55,29.1H582.22"/>
	<circle class="st1" cx="545.82" cy="245.53" r="10.46"/>
	<circle class="st1" cx="515.82" cy="245.53" r="7.4"/>
	<circle class="st1" cx="816.91" cy="460.93" r="10.46"/>
	<circle class="st1" cx="846.91" cy="460.93" r="7.4"/>
	<polyline class="st3" points="360.05,181.07 498.35,181.07 706.95,181.07 801.45,181.07 	"/>
	<line class="st11" x1="207.36" y1="181.07" x2="261.36" y2="181.07"/>
	<g>
		<polyline class="st12" points="375.43,40.88 475,40.88 475,151.11 429.67,151.11 		"/>
		<g>
			<g>
				<line class="st12" x1="454.24" y1="96" x2="405.67" y2="96"/>
				<g>
					<polygon class="st1" points="437.68,75.55 434.27,79.21 452.33,95.99 434.27,112.78 437.68,116.44 459.67,95.99 					"/>
				</g>
			</g>
		</g>
		<circle class="st12" cx="368.83" cy="40.12" r="7.36"/>
	</g>
	<polyline class="st12" points="528.35,815.23 401.63,815.23 401.63,1005.62 446.96,1005.62 	"/>
	<circle class="st12" cx="535.98" cy="815.23" r="7.36"/>
	<g>
		<path class="st13" d="M801.45,40.12c-32.38,0-58.72,26.34-58.72,58.72s26.34,58.72,58.72,58.72s58.72-26.34,58.72-58.72
			S833.83,40.12,801.45,40.12z M766.27,140.83c0.58-18.93,16.12-34.16,35.18-34.16s34.6,15.23,35.18,34.16
			c-9.53,7.99-21.8,12.82-35.18,12.82S775.8,148.83,766.27,140.83z M840.32,137.44c-2.23-19.49-18.8-34.68-38.87-34.68
			c-20.07,0-36.64,15.19-38.87,34.68c-9.84-9.91-15.93-23.56-15.93-38.59c0-30.22,24.59-54.81,54.81-54.81s54.81,24.59,54.81,54.81
			C856.26,113.88,850.17,127.52,840.32,137.44z"/>
		<path class="st13" d="M801.45,81.11l-32.62-11.52l-1.3,3.69l10.33,3.64c-2.29,1.59-3.8,4.24-3.8,7.23c0,4.86,3.95,8.81,8.81,8.81
			c4.86,0,8.81-3.95,8.81-8.81c0-0.87-0.17-1.7-0.41-2.5l10.19,3.6l10.19-3.6c-0.24,0.8-0.41,1.62-0.41,2.5
			c0,4.86,3.95,8.81,8.81,8.81c4.86,0,8.81-3.95,8.81-8.81c0-3-1.51-5.64-3.8-7.23l10.33-3.64l-1.3-3.69L801.45,81.11z
			 M782.85,89.06c-2.7,0-4.89-2.19-4.89-4.89c0-2.7,2.19-4.89,4.89-4.89c2.7,0,4.89,2.19,4.89,4.89
			C787.75,86.86,785.55,89.06,782.85,89.06z M820.04,89.06c-2.7,0-4.89-2.19-4.89-4.89c0-2.7,2.19-4.89,4.89-4.89
			c2.7,0,4.89,2.19,4.89,4.89C824.94,86.86,822.74,89.06,820.04,89.06z"/>
	</g>
	<g>
		<path class="st12" d="M589.63,319.44v90.96h-39.27v-30.86h-28.42c-1.02,0-1.86-0.83-1.86-1.86v-19.53c0-1.02-0.83-1.86-1.86-1.86
			h-10.25l14.06-25.39V319.3c0-13.75,11.15-24.9,24.9-24.9h21.58"/>
		<circle class="st12" cx="576.46" cy="294.78" r="7.9"/>
	</g>
	<g>
		<path class="st1" d="M550.77,330.31c0.5-0.17,0.99-0.37,1.45-0.6l3.1,2.07l4.13-4.13l-2.07-3.1c0.23-0.46,0.43-0.95,0.6-1.45
			l3.66-0.73v-5.84l-3.66-0.73c-0.22-0.66-0.49-1.28-0.81-1.87l-1.34,0.74c0.34,0.62,0.62,1.3,0.83,2.01l0.13,0.45l3.33,0.67v3.33
			l-3.33,0.67l-0.13,0.45c-0.21,0.71-0.48,1.39-0.83,2.01l-0.22,0.41l1.88,2.82l-2.36,2.36l-2.82-1.88l-0.41,0.22
			c-0.62,0.34-1.29,0.62-2.01,0.83l-0.45,0.13l-0.67,3.33h-3.34l-0.67-3.33l-0.45-0.13c-0.71-0.21-1.39-0.48-2.01-0.83l-0.41-0.22
			l-2.82,1.88l-2.8-2.8l-1.08,1.08l3.69,3.69l3.1-2.07c0.46,0.23,0.95,0.43,1.45,0.6l0.73,3.66h5.84L550.77,330.31z"/>
		<path class="st1" d="M537.06,324.97l1.34-0.74c-0.34-0.62-0.62-1.3-0.83-2.01l-0.13-0.45l-3.33-0.67v-3.33l3.33-0.67l0.13-0.45
			c0.21-0.71,0.48-1.39,0.83-2.01l0.22-0.41l-1.88-2.82l2.36-2.36l2.82,1.88l0.41-0.22c0.62-0.34,1.29-0.62,2.01-0.83l0.45-0.13
			l0.67-3.33h3.34l0.67,3.33l0.45,0.13c0.71,0.21,1.39,0.48,2.01,0.83l0.41,0.22l2.82-1.88l2.8,2.8l1.08-1.08l-3.69-3.69l-3.1,2.07
			c-0.46-0.23-0.95-0.43-1.45-0.6l-0.73-3.66h-5.84l-0.73,3.66c-0.5,0.17-0.99,0.37-1.45,0.6l-3.1-2.07l-4.13,4.13l2.07,3.1
			c-0.23,0.46-0.43,0.95-0.6,1.45l-3.66,0.73v5.84l3.66,0.73C536.46,323.75,536.74,324.38,537.06,324.97z"/>
		<path class="st1" d="M555.53,319.44c0-4.64-3.77-8.41-8.41-8.41v1.53c3.8,0,6.88,3.09,6.88,6.88H555.53z"/>
		<path class="st1" d="M540.23,319.44h-1.53c0,4.64,3.77,8.41,8.41,8.41v-1.53C543.32,326.33,540.23,323.24,540.23,319.44z"/>
		<path class="st1" d="M552.47,319.44c0-2.95-2.4-5.35-5.35-5.35s-5.35,2.4-5.35,5.35s2.4,5.35,5.35,5.35
			S552.47,322.4,552.47,319.44z M543.29,319.44c0-2.11,1.72-3.82,3.82-3.82s3.82,1.72,3.82,3.82c0,2.11-1.72,3.82-3.82,3.82
			S543.29,321.55,543.29,319.44z"/>
		<path class="st1" d="M562.17,339.38l-1.33,0.76c0.25,0.43,0.44,0.9,0.58,1.4l0.13,0.47l1.62,0.27v1.76l-1.62,0.27l-0.13,0.47
			c-0.14,0.49-0.33,0.96-0.58,1.4l-0.24,0.43l0.96,1.34l-1.25,1.25l-1.34-0.96l-0.43,0.24c-0.43,0.25-0.9,0.44-1.4,0.58l-0.47,0.13
			l-0.27,1.63h-1.76l-0.27-1.63l-0.47-0.13c-0.49-0.14-0.96-0.33-1.4-0.58l-0.43-0.24l-1.34,0.96l-1.7-1.7l-1.08,1.08l2.62,2.62
			l1.61-1.15c0.27,0.13,0.55,0.24,0.83,0.34l0.33,1.96h4.35l0.33-1.96c0.29-0.1,0.56-0.21,0.83-0.34l1.61,1.15l3.08-3.08l-1.15-1.61
			c0.13-0.27,0.24-0.55,0.34-0.83l1.96-0.33v-4.35l-1.96-0.33C562.59,340.2,562.4,339.78,562.17,339.38z"/>
		<path class="st1" d="M548.88,346.93l1.33-0.76c-0.25-0.43-0.44-0.9-0.58-1.4l-0.13-0.47l-1.62-0.27v-1.76l1.62-0.27l0.13-0.47
			c0.14-0.49,0.33-0.96,0.58-1.4l0.24-0.43l-0.96-1.34l1.25-1.25l1.34,0.96l0.43-0.24c0.43-0.25,0.9-0.44,1.4-0.58l0.47-0.13
			l0.27-1.63h1.76l0.27,1.63l0.47,0.13c0.49,0.14,0.96,0.33,1.4,0.58l0.43,0.24l1.34-0.96l1.7,1.7l1.08-1.08l-2.62-2.62l-1.61,1.15
			c-0.27-0.13-0.55-0.24-0.83-0.34l-0.33-1.96h-4.35l-0.33,1.96c-0.29,0.1-0.56,0.21-0.83,0.34l-1.61-1.15l-3.08,3.08l1.15,1.61
			c-0.13,0.27-0.24,0.55-0.34,0.83l-1.96,0.33v4.35l1.96,0.33C548.46,346.1,548.65,346.53,548.88,346.93z"/>
		<path class="st1" d="M555.53,339.33c-2.11,0-3.82,1.72-3.82,3.82s1.72,3.82,3.82,3.82s3.82-1.72,3.82-3.82
			S557.63,339.33,555.53,339.33z M555.53,345.45c-1.27,0-2.29-1.03-2.29-2.29s1.03-2.29,2.29-2.29s2.29,1.03,2.29,2.29
			S556.79,345.45,555.53,345.45z"/>
		<path class="st1" d="M580,329.27v-4.35l-1.96-0.33c-0.15-0.45-0.35-0.87-0.58-1.27l-1.33,0.76c0.25,0.43,0.44,0.9,0.58,1.4
			l0.13,0.47l1.62,0.27v1.76l-1.62,0.27l-0.13,0.47c-0.14,0.49-0.33,0.96-0.58,1.4l-0.24,0.43l0.96,1.34l-1.25,1.25l-1.34-0.96
			l-0.43,0.24c-0.43,0.25-0.9,0.44-1.4,0.58l-0.47,0.13l-0.27,1.63h-1.76l-0.27-1.63l-0.47-0.13c-0.49-0.14-0.96-0.33-1.4-0.58
			l-0.43-0.24l-1.34,0.96l-1.7-1.7l-1.08,1.08l2.62,2.62l1.61-1.15c0.27,0.13,0.55,0.24,0.83,0.34l0.33,1.96H573l0.33-1.96
			c0.29-0.1,0.56-0.21,0.83-0.34l1.61,1.15l3.08-3.08l-1.15-1.61c0.13-0.27,0.24-0.55,0.34-0.83L580,329.27z"/>
		<path class="st1" d="M563.6,324.59l-1.96,0.33v4.35l1.96,0.33c0.15,0.45,0.35,0.87,0.58,1.27l1.33-0.76
			c-0.25-0.43-0.44-0.9-0.58-1.4l-0.13-0.47l-1.62-0.27v-1.76l1.62-0.27l0.13-0.47c0.14-0.49,0.33-0.96,0.58-1.4l0.24-0.43
			l-0.96-1.34l1.25-1.25l1.34,0.96l0.43-0.24c0.43-0.25,0.9-0.44,1.4-0.58l0.47-0.13l0.27-1.63h1.76l0.27,1.63l0.47,0.13
			c0.49,0.14,0.96,0.33,1.4,0.58l0.43,0.24l1.34-0.96l1.7,1.7l1.08-1.08l-2.62-2.62l-1.61,1.15c-0.27-0.13-0.55-0.24-0.83-0.34
			l-0.33-1.96h-4.35l-0.33,1.96c-0.29,0.1-0.56,0.21-0.83,0.34l-1.61-1.15l-3.08,3.08l1.15,1.61
			C563.81,324.02,563.7,324.3,563.6,324.59z"/>
		<path class="st1" d="M570.82,323.27c-2.11,0-3.82,1.72-3.82,3.82c0,2.11,1.72,3.82,3.82,3.82c2.11,0,3.82-1.72,3.82-3.82
			C574.65,324.98,572.93,323.27,570.82,323.27z M570.82,329.39c-1.27,0-2.29-1.03-2.29-2.29c0-1.27,1.03-2.29,2.29-2.29
			c1.27,0,2.29,1.03,2.29,2.29C573.12,328.36,572.09,329.39,570.82,329.39z"/>
	</g>
	<g>
		<path class="st1" d="M370.65,381.26L378.6,361c-1.96-0.74-3.71-2.09-5.19-3.66l-27.39,11.89c0.14,1.04,0.16,1.93,0.04,2.94
			c-0.73,6.29-6.34,10.75-12.49,9.91c-6.18-0.59-10.75-6.34-10.05-12.38c0.73-6.29,6.34-10.75,12.63-10.02
			c2.77,0.32,5.67,1.67,7.68,4.2l26.33-11.51c-1.05-3.05-1.29-6.53-0.52-9.88l-17.69-7.01c-3.97,6.81-11.57,10.78-19.38,9.88
			c-10.83-1.25-18.62-11.07-17.37-21.9s11.08-18.62,21.9-17.37c10.83,1.25,18.62,11.08,17.37,21.9c-0.09,0.76-0.17,1.51-0.37,2.13
			l18.05,7.18c3.32-4.46,8.84-7.02,14.63-6.35l3.9-30.54c-4.78-1.7-7.78-6.64-7.06-11.78c0.59-6.18,6.34-10.75,12.49-9.91
			c6.29,0.73,10.75,6.34,9.91,12.49c-0.47,5.18-4.52,9.3-9.56,9.87l-3.69,31.97c1.68,0.96,3.07,2.14,4.29,3.68l19.37-15.37
			c-2.11-3.81-2.91-7.99-2.44-12.02c1.25-10.83,11.08-18.62,21.9-17.37c10.71,1.11,18.62,11.07,17.37,21.9
			c-1.36,10.68-11.19,18.48-21.9,17.37c-4.14-0.6-8.02-2.33-11.26-5.25l-20.22,16.04c1.02,3.31,1.01,6.75-0.27,10.05l26.56,19.64
			l0,0c2.53-2,5.66-2.66,8.43-2.34c6.29,0.73,10.75,6.34,9.91,12.49c-0.59,6.18-6.34,10.75-12.38,10.05
			c-6.29-0.73-10.75-6.34-10.02-12.63c0.12-1.01,0.34-1.87,0.71-2.85l-26.2-19.47c-3.09,3.6-7.52,5.51-12.22,5.35l-8.43,21.09
			c6.81,3.97,10.64,11.69,9.74,19.49c-1.11,10.71-11.07,18.62-21.9,17.37c-10.68-1.36-18.48-11.19-17.37-21.9
			c1.25-10.83,11.22-18.73,21.9-17.37C369.14,381.09,369.9,381.17,370.65,381.26z M394.66,347.8c0.64-5.54-3.26-10.45-8.69-10.95
			c-5.4-0.75-10.31,3.15-10.95,8.69c-1.02,8.81,9.2,14.2,15.94,8.85C393.08,352.72,394.37,350.32,394.66,347.8z M394.21,295.33
			c2.99,0.6,5.83-1.88,6.04-4.79c0.46-2.88-1.77-5.69-4.79-6.04c-3.02-0.35-5.69,1.77-6.04,4.79
			C389.07,292.31,391.19,294.98,394.21,295.33z M336.43,311.88c-7.55-0.87-14.57,4.7-15.44,12.25c-0.87,7.55,4.7,14.57,12.25,15.44
			c7.55,0.87,14.57-4.7,15.44-12.25C349.55,319.77,343.98,312.75,336.43,311.88z M429.89,376.35c-3.79,3.01-1.94,9.09,2.84,9.64
			c3.02,0.35,5.69-1.77,6.15-4.65C439.32,376.42,433.82,373.24,429.89,376.35z M331.39,366.66c-3.79,3.01-2.08,9.2,2.84,9.64
			c2.88,0.46,5.69-1.77,6.04-4.79C340.82,366.73,335.32,363.54,331.39,366.66z M435.25,297.76c-7.55-0.87-14.68,4.56-15.44,12.25
			c-0.41,3.52,0.59,7.08,3.04,10.17c2.34,2.95,5.58,4.72,9.1,5.13c7.66,1.01,14.68-4.56,15.44-12.25
			C448.26,305.51,442.8,298.64,435.25,297.76z M367.72,386.79c-7.55-0.87-14.43,4.59-15.3,12.14c-1.01,7.66,4.45,14.54,12.11,15.55
			c7.69,0.76,14.57-4.7,15.44-12.25C380.87,394.43,375.27,387.66,367.72,386.79z"/>
	</g>
	<line class="st12" x1="567" y1="69.59" x2="752.77" y2="69.59"/>
	<line class="st12" x1="589.63" y1="321.92" x2="782.08" y2="321.92"/>
	<line class="st12" x1="279.33" y1="321.62" x2="317.67" y2="321.62"/>
	<line class="st12" x1="156.85" y1="541.12" x2="329.62" y2="541.12"/>
	<g>
		<path class="st1" d="M396.34,497.28c-19.15,0-37.63,6.93-52.03,19.53c-1.03,0.9-1.13,2.46-0.23,3.49c0.9,1.03,2.46,1.13,3.49,0.23
			c13.06-11.42,29.7-17.85,47.02-18.26v9.85c0,1.35,1.09,2.46,2.45,2.47c29.51,0.32,54.79,21.62,60.09,50.64
			c0.22,1.19,1.26,2.03,2.43,2.03c0.15,0,0.3-0.01,0.45-0.04c1.34-0.25,2.23-1.53,1.99-2.88c-5.59-30.54-31.64-53.16-62.46-54.62
			v-7.41c43.81,1.86,77.13,41.63,70.01,86h-10.56c-1.15,0-2.15,0.8-2.41,1.92c-6.39,27.78-31.72,47.94-60.23,47.94
			c-12.97,0-25.39-3.99-35.92-11.54c-1.1-0.79-2.62-0.55-3.42,0.53l-5.9,7.91c-30.92-23.89-37.74-66.99-17.03-98.95
			c0.74-1.15,0.42-2.68-0.73-3.42c-1.14-0.74-2.68-0.42-3.42,0.73c-34.2,52.77,4.42,122.05,66.42,122.05
			c14.62,0,28.9-4.02,41.29-11.62c1.16-0.71,1.53-2.24,0.82-3.4c-0.71-1.17-2.24-1.53-3.4-0.81c-11.62,7.13-25.01,10.9-38.71,10.9
			c-15.25,0-29.44-4.63-41.24-12.56l4.43-5.94c10.93,7.26,23.61,11.09,36.8,11.09c30.13,0,56.97-20.85,64.57-49.85h7.62
			c-2.37,10.21-6.85,19.8-13.39,28.29c-0.83,1.08-0.63,2.63,0.45,3.47c1.08,0.83,2.63,0.63,3.47-0.45
			C498.71,573.01,462.05,497.28,396.34,497.28z"/>
		<path class="st1" d="M374.99,513.15c-22.41,7.59-38.71,26.24-43.73,48.62c-0.02,0.08-0.07,0.15-0.08,0.23
			c-0.01,0.04,0.01,0.08,0.01,0.12c-4.11,18.82-0.14,38.58,11.99,54.54c0.82,1.08,2.37,1.3,3.46,0.47c1.09-0.83,1.3-2.38,0.47-3.46
			c-10.27-13.52-14.79-30.79-11.47-48.61l7.33,0.93c-6.53,33.69,19.4,64.76,53.38,64.76c20.39,0,38.9-11.28,48.31-29.42
			c0.63-1.21,0.15-2.7-1.06-3.33c-1.21-0.63-2.71-0.16-3.33,1.06c-8.56,16.5-25.39,26.76-43.92,26.76
			c-32.11,0-55.69-30.24-47.98-61.33c0.17-0.69,0.04-1.41-0.36-1.99c-0.4-0.58-1.03-0.97-1.73-1.06l-9.53-1.21
			c5.3-19.54,19.97-35.66,39.83-42.39c1.29-0.44,1.99-1.84,1.55-3.13C377.68,513.4,376.27,512.71,374.99,513.15z"/>
		<path class="st1" d="M445.77,576.37c0,1.36,1.11,2.47,2.47,2.47c1.37,0,2.47-1.11,2.47-2.47c0-24.98-16.93-46.06-39.92-52.41
			c-0.01,0-0.02-0.01-0.03-0.02c-0.02-0.01-0.04,0-0.06-0.01c-20.29-5.56-41.49,1.13-55.02,16.37c-0.91,1.02-0.81,2.58,0.21,3.49
			c1.02,0.9,2.58,0.81,3.49-0.21c1-1.13,2.05-2.19,3.14-3.21l4.2,6.2c-22.67,22.49-12.63,60.95,17.53,70.03
			c1.32,0.4,2.69-0.36,3.08-1.65c0.39-1.31-0.35-2.69-1.66-3.08c-33.08-9.96-35.91-56.53-3.3-69.85c1.26-0.52,1.87-1.96,1.35-3.22
			c-0.52-1.27-1.96-1.87-3.22-1.35c-3.67,1.5-7.03,3.49-10.04,5.84l-4.15-6.13c11.17-8.56,25.77-12.26,40.44-9.1l-3.12,9.15
			c-0.22,0.65-0.16,1.37,0.17,1.98c0.33,0.61,0.9,1.05,1.57,1.22c16.51,4.15,28.05,18.93,28.05,35.96
			c0,14.16-8.01,26.95-20.59,33.21l-3.43-6.57c7.16-3.49,12.77-9.81,15.27-17.83c0.41-1.3-0.32-2.69-1.62-3.09
			c-1.31-0.4-2.69,0.32-3.1,1.62c-3.24,10.39-12.72,17.38-23.6,17.38c-25.53,0-34.36-34.42-11.56-46.54v8.14
			c-12.33,10.38-4.97,30.55,11.12,30.55c9.54,0,17.3-7.76,17.3-17.3c0-6.05-3.24-11.75-8.45-14.86c-1.18-0.7-2.69-0.32-3.39,0.85
			c-0.7,1.17-0.32,2.69,0.85,3.39c3.73,2.23,6.05,6.3,6.05,10.62c0,6.81-5.54,12.36-12.36,12.36c-11.87,0-16.99-15.35-7.2-22.39
			c0.64-0.46,1.03-1.21,1.03-2.01v-11.31c12.8-3.57,25.65,3.59,29.91,15.5c0.46,1.28,1.87,1.96,3.16,1.5
			c1.28-0.46,1.96-1.87,1.49-3.16c-4.21-11.79-15.44-19.7-27.94-19.7c-16.35,0-29.66,13.31-29.66,29.66s13.3,29.66,29.66,29.66
			c2.91,0,5.73-0.44,8.41-1.22l4.77,9.14c0.59,1.14,1.97,1.63,3.15,1.13c15.6-6.61,25.68-21.8,25.68-38.71
			c0-18.4-11.88-34.49-29.21-40.02l2.39-7C431.38,535.78,445.77,554.42,445.77,576.37z"/>
	</g>
	<path class="st14" d="M518.5,644.8h53.51c10.72,0,19.41-8.69,19.41-19.41v-2.14c0-10.72-8.69-19.41-19.41-19.41h0
		c-10.72,0-19.41-8.69-19.41-19.41v-2.4c0-10.72,8.69-19.41,19.41-19.41h58.79"/>
	<g>
		<path class="st15" d="M519.89,598.67c-7.1,0-12.85,5.75-12.85,12.85c0,1.02,0.36,2.97,0.36,2.97
			c2.97,13.17,12.49,28.31,12.49,28.31c0,0,9.52-15.15,12.49-28.31c0,0,0.36-1.95,0.36-2.97
			C532.74,604.42,526.99,598.67,519.89,598.67z"/>
		<circle class="st16" cx="519.94" cy="611.31" r="4.71"/>
	</g>
	<g>
		<path class="st15" d="M630.79,519.05c-7.1,0-12.85,5.75-12.85,12.85c0,1.02,0.36,2.97,0.36,2.97
			c2.97,13.17,12.49,28.31,12.49,28.31c0,0,9.52-15.15,12.49-28.31c0,0,0.36-1.95,0.36-2.97
			C643.64,524.81,637.89,519.05,630.79,519.05z"/>
		<circle class="st16" cx="630.85" cy="531.7" r="4.71"/>
	</g>
	<line class="st12" x1="664.06" y1="541.62" x2="642.19" y2="541.62"/>
	<g>
		<rect x="532.74" y="910.42" class="st4" width="178.16" height="67.84"/>
		<text transform="matrix(1 0 0 1 578.2571 924.1037)"><tspan x="0" y="0" class="st1 st5 st6">Somos tomados </tspan><tspan x="-42.59" y="26" class="st1 st5 st6">por forças e emoções </tspan><tspan x="17.52" y="52" class="st1 st5 st6">mobilizadoras</tspan></text>
		<rect x="650.33" y="864.72" class="st4" width="56.58" height="41.94"/>
		<text transform="matrix(1 0 0 1 654.1125 894.4025)" class="st7 st8 st9">06</text>
		<line class="st12" x1="710.9" y1="894.25" x2="733.25" y2="894.25"/>
		<path class="st1" d="M797.29,978.26c-37.41,0-67.84-30.43-67.84-67.84s30.43-67.84,67.84-67.84s67.84,30.43,67.84,67.84
			S834.69,978.26,797.29,978.26z M797.29,848.45c-34.17,0-61.97,27.8-61.97,61.97s27.8,61.97,61.97,61.97s61.97-27.8,61.97-61.97
			S831.46,848.45,797.29,848.45z"/>
		<path class="st1" d="M797.29,948.87c-19.5,0-30.79-15.53-30.9-15.69c-0.51-0.7-0.7-1.52-0.56-2.31c0.13-0.75,0.56-1.39,1.2-1.82
			c0.57-0.42,1.17-0.61,1.8-0.61c0.95,0,1.8,0.45,2.33,1.24l0.11,0.17l0.08,0.08c2.61,3.17,11.88,13.08,26.14,13.08
			c9.25,0,18.31-4.41,25.54-12.43h0.14l0.6-0.82c0.55-0.76,1.43-1.21,2.36-1.21c0.43,0,1.06,0.1,1.66,0.59l0.09,0.07
			c0.63,0.46,1.06,1.17,1.2,1.96c0.13,0.73,0,1.44-0.37,2.02c-0.14,0.14-0.3,0.32-0.54,0.59
			C816.99,946.25,805.21,948.87,797.29,948.87z"/>
		<circle class="st1" cx="773.02" cy="894.64" r="6.29"/>
		<circle class="st1" cx="821.55" cy="894.64" r="6.29"/>
	</g>
	<g>
		<g>
			<path class="st13" d="M429.55,904.38h18.1c1.58,0,3.02,0.65,4.06,1.69c1.04,1.04,1.69,2.48,1.69,4.06v34.2
				c0,1.58-0.65,3.02-1.69,4.06c-1.04,1.04-2.48,1.69-4.06,1.69h-18.1c-1.58,0-3.02-0.65-4.06-1.69c-1.04-1.04-1.69-2.48-1.69-4.06
				v-34.2c0-1.58,0.65-3.02,1.69-4.06C426.54,905.02,427.97,904.38,429.55,904.38z M447.65,907.18h-18.1
				c-0.81,0-1.54,0.33-2.08,0.86c-0.53,0.53-0.86,1.27-0.86,2.08v34.2c0,0.81,0.33,1.54,0.86,2.08c0.53,0.53,1.27,0.86,2.08,0.86
				h18.1c0.81,0,1.54-0.33,2.08-0.86c0.53-0.53,0.86-1.27,0.86-2.08v-34.2c0-0.81-0.33-1.54-0.86-2.08
				C449.19,907.51,448.46,907.18,447.65,907.18z"/>
			<path class="st13" d="M451.13,907.39c-0.7,0.33-0.99,1.17-0.66,1.86c0.33,0.7,1.17,0.99,1.86,0.66
				c0.06-0.03,19.25-8.93,16.44-36.42c3.89-0.71,16.33-0.99,10.94,26.34l0,0c-0.15,0.76,0.34,1.5,1.1,1.65
				c0.19,0.04,0.39,0.03,0.57-0.01c2.31-0.3,38.47-4.68,26.9,13.07l0,0c-0.36,0.55-0.28,1.25,0.14,1.71
				c0.53,0.69,4.54,6.26-1.84,9.37l-0.01,0c-0.66,0.32-0.95,1.09-0.7,1.76c0.19,0.57,2.29,7.23-2.64,9.34l0,0
				c-0.57,0.25-0.9,0.83-0.84,1.42c-0.01,1.16-0.31,10.45-8.17,9.38l0,0c-0.07-0.01-0.14-0.01-0.21-0.01h-34.12l-7.25-3.99
				c-0.68-0.37-1.53-0.12-1.9,0.55c-0.37,0.68-0.12,1.53,0.55,1.9l7.5,4.12c0.22,0.14,0.47,0.22,0.75,0.22h34.45
				c9.68,1.23,11-8.38,11.18-11.41c5.06-2.78,4.28-8.78,3.68-11.3c6.82-4,3.73-10.12,2.3-12.33c12.01-19.67-20.03-17.6-28.32-16.76
				c5.93-33.54-14.48-27.88-15.91-27.45c-0.68,0.17-1.14,0.82-1.05,1.53l0,0C469.13,899.05,451.18,907.36,451.13,907.39z"/>
		</g>
	</g>
</g>
</svg>
